<?xml version="1.0" encoding="UTF-8"?>
<svg xmlns="http://www.w3.org/2000/svg" xmlns:xlink="http://www.w3.org/1999/xlink" width="500.7888pt" height="90.3996pt" viewBox="0 0 500.7888 90.3996" version="1.1">
<g id="surface1">
<path style=" stroke:none;fill-rule:nonzero;fill:rgb(0%,0%,0%);fill-opacity:1;" d="M 323.527344 2.070313 L 305.003906 70.09375 L 292.117188 70.09375 L 282.652344 33.011719 L 273.039063 70.09375 L 260.242188 70.09375 L 242.730469 2.070313 L 262.539063 2.070313 L 272.894531 43.367188 L 283.203125 2.070313 L 294.808594 2.070313 L 304.984375 43.511719 L 315.835938 2.070313 Z M 323.527344 2.070313 "/>
<path style=" stroke:none;fill-rule:nonzero;fill:rgb(0%,0%,0%);fill-opacity:1;" d="M 328.683594 70.09375 L 328.683594 2.070313 L 357.925781 2.070313 C 365.53125 2.070313 371.628906 3.679688 376.191406 6.886719 C 380.53125 9.738281 383.09375 14.613281 382.976563 19.804688 C 382.976563 28.09375 378.078125 33.472656 368.277344 35.941406 C 373.28125 37.832031 376.539063 39.871094 378.046875 42.0625 C 379.554688 44.257813 380.554688 48.566406 381.058594 54.988281 C 381.6875 62.609375 382.964844 67.644531 384.890625 70.09375 L 363.496094 70.09375 C 362.03125 66.34375 361.335938 62.339844 361.464844 58.3125 L 361.355469 54.289063 L 361.257813 49.222656 C 361.257813 41.40625 358.101563 37.5 351.792969 37.5 L 348.402344 37.5 L 348.402344 70.09375 Z M 348.402344 31.859375 L 352.382813 31.859375 C 359.921875 31.859375 363.691406 27.941406 363.691406 20.121094 C 363.691406 12.292969 359.921875 8.382813 352.382813 8.382813 L 348.402344 8.382813 Z M 348.402344 31.859375 "/>
<path style=" stroke:none;fill-rule:nonzero;fill:rgb(0%,0%,0%);fill-opacity:1;" d="M 420.867188 1 C 440.621094 1 450.503906 12.71875 450.503906 36.148438 C 450.503906 59.589844 440.441406 71.308594 420.3125 71.308594 C 400.191406 71.308594 390.125 59.324219 390.125 35.363281 C 390.128906 12.453125 400.378906 1 420.867188 1 Z M 420.324219 6.371094 C 416.601563 6.371094 414.082031 8.425781 412.773438 12.53125 C 411.460938 16.640625 410.8125 24.515625 410.835938 36.148438 C 410.835938 47.800781 411.496094 55.671875 412.804688 59.769531 C 414.117188 63.871094 416.621094 65.917969 420.3125 65.914063 C 424.039063 65.914063 426.554688 63.859375 427.867188 59.75 C 429.175781 55.644531 429.835938 47.769531 429.835938 36.128906 C 429.835938 24.519531 429.175781 16.660156 427.867188 12.53125 C 426.554688 8.40625 424.039063 6.351563 420.3125 6.371094 Z M 420.324219 6.371094 "/>
<path style=" stroke:none;fill-rule:nonzero;fill:rgb(88.627625%,11.764526%,14.509583%);fill-opacity:1;" d="M 477.652344 35.902344 L 477.652344 31.992188 L 496.507813 37.082031 L 499.789063 31.429688 L 477.652344 25.851563 L 477.652344 21.703125 C 482.203125 19.617188 484.65625 14.609375 483.511719 9.734375 C 482.371094 4.859375 477.945313 1.460938 472.941406 1.613281 C 467.9375 1.765625 463.730469 5.421875 462.890625 10.359375 C 462.039063 15.296875 464.792969 20.144531 469.460938 21.953125 L 469.460938 37.058594 L 457.5 60.71875 L 462.105469 60.71875 L 458.03125 67.78125 L 463.484375 70.933594 L 469.375 60.753906 L 477.289063 60.753906 L 483.359375 71.261719 L 488.855469 68.082031 L 484.601563 60.71875 L 490.253906 60.71875 Z M 477.652344 35.902344 "/>
<path style=" stroke:none;fill-rule:nonzero;fill:rgb(0%,31.764221%,52.941895%);fill-opacity:1;" d="M 39.125 46.058594 L 43.367188 41.039063 L 25.582031 26.121094 L 25.582031 21.703125 C 30.132813 19.617188 32.582031 14.609375 31.4375 9.734375 C 30.296875 4.859375 25.878906 1.460938 20.875 1.613281 C 15.867188 1.765625 11.660156 5.421875 10.816406 10.359375 C 9.976563 15.296875 12.722656 20.144531 17.394531 21.953125 L 17.394531 26.167969 L 1 42.550781 L 5.453125 47.003906 L 17.359375 35.078125 L 17.359375 47.992188 L 5.964844 67.785156 L 11.410156 70.945313 L 21.253906 53.894531 L 31.269531 71.238281 L 36.714844 68.082031 L 25.582031 48.78125 L 25.582031 34.34375 Z M 39.125 46.058594 "/>
<path style=" stroke:none;fill-rule:nonzero;fill:rgb(0%,60.00061%,83.921814%);fill-opacity:1;" d="M 59.511719 35.902344 L 59.511719 34.773438 L 71.394531 46.691406 L 75.847656 42.171875 L 59.511719 25.863281 L 59.511719 21.703125 C 64.066406 19.617188 66.515625 14.609375 65.371094 9.734375 C 64.230469 4.859375 59.8125 1.460938 54.808594 1.613281 C 49.800781 1.765625 45.589844 5.421875 44.75 10.359375 C 43.90625 15.296875 46.65625 20.144531 51.328125 21.953125 L 51.328125 25.652344 L 34.726563 42.234375 L 39.171875 46.691406 L 51.28125 34.550781 L 51.28125 37.058594 L 39.367188 60.71875 L 43.964844 60.71875 L 39.898438 67.78125 L 45.34375 70.933594 L 51.238281 60.753906 L 59.152344 60.753906 L 65.226563 71.261719 L 70.671875 68.105469 L 66.421875 60.742188 L 72.074219 60.742188 Z M 59.511719 35.902344 "/>
<path style=" stroke:none;fill-rule:nonzero;fill:rgb(0%,54.118347%,27.058411%);fill-opacity:1;" d="M 105.675781 45.84375 L 109.738281 41.039063 L 91.984375 26.121094 L 91.984375 21.703125 C 96.535156 19.617188 98.992188 14.609375 97.851563 9.734375 C 96.707031 4.859375 92.285156 1.460938 87.277344 1.613281 C 82.273438 1.765625 78.070313 5.421875 77.222656 10.359375 C 76.378906 15.296875 79.128906 20.144531 83.800781 21.953125 L 83.800781 26.167969 L 67.351563 42.613281 L 71.804688 47.0625 L 83.789063 35.078125 L 83.789063 47.992188 L 72.367188 67.785156 L 77.816406 70.945313 L 87.65625 53.894531 L 97.640625 71.238281 L 103.089844 68.082031 L 91.984375 48.78125 L 91.984375 34.34375 Z M 105.675781 45.84375 "/>
<path style=" stroke:none;fill-rule:nonzero;fill:rgb(56.079102%,75.294495%,24.313354%);fill-opacity:1;" d="M 125.90625 35.902344 L 125.90625 34.773438 L 137.800781 46.691406 L 142.257813 42.171875 L 125.90625 25.863281 L 125.90625 21.703125 C 130.457031 19.617188 132.90625 14.609375 131.765625 9.734375 C 130.617188 4.859375 126.199219 1.464844 121.195313 1.613281 C 116.1875 1.765625 111.984375 5.421875 111.136719 10.359375 C 110.292969 15.292969 113.035156 20.136719 117.707031 21.953125 L 117.707031 25.652344 L 101.273438 42.113281 L 105.722656 46.570313 L 117.730469 34.5625 L 117.730469 37.070313 L 105.78125 60.71875 L 110.382813 60.71875 L 106.3125 67.78125 L 111.761719 70.933594 L 117.65625 60.753906 L 125.570313 60.753906 L 131.558594 71.238281 L 137.011719 68.082031 L 132.757813 60.71875 L 138.414063 60.71875 Z M 125.90625 35.902344 "/>
<path style=" stroke:none;fill-rule:nonzero;fill:rgb(100%,86.66687%,0%);fill-opacity:1;" d="M 172.386719 45.84375 L 176.4375 41.039063 L 158.695313 26.121094 L 158.695313 21.703125 C 163.246094 19.617188 165.695313 14.609375 164.554688 9.734375 C 163.40625 4.859375 158.988281 1.464844 153.984375 1.613281 C 148.976563 1.765625 144.773438 5.421875 143.925781 10.359375 C 143.082031 15.292969 145.828125 20.136719 150.496094 21.953125 L 150.496094 26.167969 L 133.914063 42.757813 L 138.34375 47.210938 L 150.472656 35.078125 L 150.472656 47.992188 L 139.054688 67.78125 L 144.507813 70.933594 L 154.34375 53.882813 L 164.347656 71.238281 L 169.800781 68.082031 L 158.695313 48.78125 L 158.695313 34.34375 Z M 172.386719 45.84375 "/>
<path style=" stroke:none;fill-rule:nonzero;fill:rgb(94.117737%,56.079102%,12.940979%);fill-opacity:1;" d="M 192.617188 35.902344 L 192.617188 34.773438 L 204.511719 46.691406 L 208.957031 42.171875 L 192.617188 25.863281 L 192.617188 21.703125 C 197.167969 19.617188 199.625 14.609375 198.480469 9.734375 C 197.335938 4.859375 192.914063 1.460938 187.910156 1.613281 C 182.902344 1.765625 178.699219 5.421875 177.851563 10.359375 C 177.007813 15.296875 179.757813 20.144531 184.429688 21.953125 L 184.429688 25.652344 L 167.957031 42.171875 L 172.410156 46.621094 L 184.429688 34.601563 L 184.429688 37.109375 L 172.480469 60.71875 L 177.082031 60.71875 L 173.011719 67.78125 L 178.457031 70.933594 L 184.351563 60.753906 L 192.269531 60.753906 L 198.269531 71.238281 L 203.722656 68.082031 L 199.46875 60.71875 L 205.121094 60.71875 Z M 192.617188 35.902344 "/>
<path style=" stroke:none;fill-rule:nonzero;fill:rgb(88.235474%,4.31366%,48.234558%);fill-opacity:1;" d="M 238.679688 45.84375 L 242.730469 41.039063 L 224.972656 26.144531 L 224.972656 21.703125 C 229.527344 19.617188 231.984375 14.609375 230.839844 9.734375 C 229.699219 4.859375 225.277344 1.460938 220.269531 1.613281 C 215.265625 1.765625 211.058594 5.421875 210.210938 10.359375 C 209.371094 15.296875 212.117188 20.144531 216.789063 21.953125 L 216.789063 26.167969 L 200.40625 42.550781 L 204.863281 47.003906 L 216.789063 35.078125 L 216.789063 47.992188 L 205.359375 67.78125 L 210.8125 70.933594 L 220.644531 53.882813 L 230.664063 71.226563 L 236.109375 68.070313 L 224.964844 48.761719 L 224.964844 34.34375 Z M 238.679688 45.84375 "/>
<path style=" stroke:none;fill-rule:nonzero;fill:rgb(0%,0%,0%);fill-opacity:1;" d="M 450.410156 3.015625 L 448.035156 3.015625 L 448.035156 9.128906 L 447.019531 9.128906 L 447.019531 3.015625 L 444.621094 3.015625 L 444.621094 1.996094 L 450.410156 1.996094 Z M 459.367188 9.128906 L 458.324219 9.128906 L 458.324219 3.015625 L 455.886719 9.128906 L 455.226563 9.128906 L 452.855469 3.015625 L 452.855469 9.128906 L 451.835938 9.128906 L 451.835938 1.996094 L 453.542969 1.996094 L 455.558594 7.121094 L 457.671875 1.984375 L 459.367188 1.984375 Z M 459.367188 9.128906 "/>
<path style=" stroke:none;fill-rule:nonzero;fill:rgb(0%,0%,0%);fill-opacity:1;" d="M 254.507813 86.574219 L 257.542969 79.050781 L 260.570313 86.574219 L 263.035156 79.535156 L 264.164063 79.535156 L 260.570313 89.398438 L 257.542969 81.84375 L 254.507813 89.398438 L 250.914063 79.535156 L 252.046875 79.535156 Z M 254.507813 86.574219 "/>
<path style=" stroke:none;fill-rule:nonzero;fill:rgb(0%,0%,0%);fill-opacity:1;" d="M 276.074219 84.242188 C 276.089844 88.597656 270.832031 90.800781 267.742188 87.726563 C 264.65625 84.652344 266.828125 79.375 271.1875 79.375 C 273.882813 79.363281 276.074219 81.550781 276.074219 84.242188 Z M 267.347656 84.242188 C 267.375 87.65625 271.511719 89.339844 273.917969 86.914063 C 276.320313 84.488281 274.605469 80.367188 271.1875 80.359375 C 269.058594 80.375 267.339844 82.101563 267.335938 84.230469 Z M 267.347656 84.242188 "/>
<path style=" stroke:none;fill-rule:nonzero;fill:rgb(0%,0%,0%);fill-opacity:1;" d="M 280.808594 88.921875 L 279.679688 88.921875 L 279.679688 79.546875 L 281.039063 79.546875 C 282.8125 79.546875 284.429688 80.023438 284.429688 82.136719 C 284.507813 83.503906 283.445313 84.671875 282.074219 84.730469 L 285.058594 88.933594 L 283.863281 88.933594 L 281.027344 84.816406 L 280.808594 84.816406 Z M 280.808594 83.882813 L 281.136719 83.882813 C 282.269531 83.882813 283.511719 83.652344 283.511719 82.203125 C 283.511719 80.757813 282.382813 80.507813 281.125 80.507813 L 280.808594 80.507813 Z M 280.808594 83.882813 "/>
<path style=" stroke:none;fill-rule:nonzero;fill:rgb(0%,0%,0%);fill-opacity:1;" d="M 289.9375 87.949219 L 292.523438 87.949219 L 292.523438 88.921875 L 288.894531 88.921875 L 288.894531 79.546875 L 289.9375 79.546875 Z M 289.9375 87.949219 "/>
<path style=" stroke:none;fill-rule:nonzero;fill:rgb(0%,0%,0%);fill-opacity:1;" d="M 296.0625 79.546875 L 297.828125 79.546875 C 299.148438 79.441406 300.453125 79.839844 301.476563 80.679688 C 303.535156 82.585938 303.535156 85.839844 301.476563 87.746094 C 300.449219 88.609375 299.105469 89.015625 297.769531 88.875 L 296.03125 88.875 Z M 297.875 87.960938 C 298.953125 88.054688 300.023438 87.710938 300.835938 86.992188 C 302.425781 85.476563 302.425781 82.9375 300.835938 81.425781 C 300.019531 80.753906 298.976563 80.429688 297.925781 80.519531 L 297.167969 80.519531 L 297.167969 87.960938 Z M 297.875 87.960938 "/>
<path style=" stroke:none;fill-rule:nonzero;fill:rgb(0%,0%,0%);fill-opacity:1;" d="M 314.128906 88.921875 L 313.09375 88.921875 L 313.09375 79.546875 L 314.445313 79.546875 C 316.226563 79.546875 317.839844 80.023438 317.839844 82.136719 C 317.914063 83.503906 316.855469 84.671875 315.488281 84.730469 L 318.472656 88.933594 L 317.195313 88.933594 L 314.355469 84.816406 L 314.097656 84.816406 Z M 314.128906 83.882813 L 314.457031 83.882813 C 315.589844 83.882813 316.832031 83.652344 316.832031 82.203125 C 316.832031 80.757813 315.699219 80.507813 314.445313 80.507813 L 314.128906 80.507813 Z M 314.128906 83.882813 "/>
<path style=" stroke:none;fill-rule:nonzero;fill:rgb(0%,0%,0%);fill-opacity:1;" d="M 331.132813 84.242188 C 331.160156 88.597656 325.894531 90.800781 322.808594 87.726563 C 319.71875 84.652344 321.894531 79.375 326.253906 79.375 C 328.945313 79.363281 331.132813 81.550781 331.132813 84.242188 Z M 322.40625 84.242188 C 322.4375 87.65625 326.578125 89.339844 328.980469 86.914063 C 331.386719 84.488281 329.667969 80.367188 326.253906 80.359375 C 324.128906 80.382813 322.414063 82.101563 322.40625 84.230469 Z M 322.40625 84.242188 "/>
<path style=" stroke:none;fill-rule:nonzero;fill:rgb(0%,0%,0%);fill-opacity:1;" d="M 335.082031 79.546875 L 336.617188 79.546875 C 338.324219 79.546875 339.75 80.171875 339.75 82.078125 C 339.792969 82.808594 339.4375 83.503906 338.839844 83.910156 C 339.878906 84.210938 340.59375 85.175781 340.5625 86.265625 C 340.5625 88.132813 339.0625 88.875 337.171875 88.875 L 335.082031 88.875 Z M 336.125 83.675781 L 336.519531 83.675781 C 337.648438 83.675781 338.714844 83.539063 338.714844 82.078125 C 338.714844 80.625 337.820313 80.507813 336.527344 80.507813 L 336.125 80.507813 Z M 336.125 87.949219 L 337.164063 87.949219 C 338.296875 87.949219 339.5625 87.667969 339.5625 86.230469 C 339.5625 84.792969 338.167969 84.570313 337.023438 84.570313 L 336.125 84.570313 Z M 336.125 87.949219 "/>
<path style=" stroke:none;fill-rule:nonzero;fill:rgb(0%,0%,0%);fill-opacity:1;" d="M 353.636719 84.242188 C 353.65625 88.597656 348.398438 90.800781 345.304688 87.726563 C 342.21875 84.652344 344.398438 79.375 348.753906 79.375 C 351.445313 79.363281 353.636719 81.550781 353.636719 84.242188 Z M 344.910156 84.242188 C 344.941406 87.65625 349.078125 89.339844 351.480469 86.914063 C 353.890625 84.488281 352.171875 80.367188 348.753906 80.359375 C 346.628906 80.382813 344.914063 82.101563 344.910156 84.230469 Z M 344.910156 84.242188 "/>
<path style=" stroke:none;fill-rule:nonzero;fill:rgb(0%,0%,0%);fill-opacity:1;" d="M 359.550781 88.921875 L 358.507813 88.921875 L 358.507813 80.507813 L 356.246094 80.507813 L 356.246094 79.535156 L 361.898438 79.535156 L 361.898438 80.507813 L 359.640625 80.507813 Z M 359.550781 88.921875 "/>
<path style=" stroke:none;fill-rule:nonzero;fill:rgb(0%,0%,0%);fill-opacity:1;" d="M 380.75 84.242188 C 380.773438 88.597656 375.507813 90.800781 372.421875 87.726563 C 369.332031 84.652344 371.511719 79.375 375.867188 79.375 C 378.558594 79.363281 380.75 81.550781 380.75 84.242188 Z M 372.023438 84.242188 C 372.050781 87.65625 376.191406 89.339844 378.59375 86.914063 C 381.003906 84.488281 379.285156 80.367188 375.867188 80.359375 C 373.742188 80.382813 372.027344 82.101563 372.023438 84.230469 Z M 372.023438 84.242188 "/>
<path style=" stroke:none;fill-rule:nonzero;fill:rgb(0%,0%,0%);fill-opacity:1;" d="M 385.457031 87.949219 L 388.046875 87.949219 L 388.046875 88.921875 L 384.414063 88.921875 L 384.414063 79.546875 L 385.457031 79.546875 Z M 385.457031 87.949219 "/>
<path style=" stroke:none;fill-rule:nonzero;fill:rgb(0%,0%,0%);fill-opacity:1;" d="M 389.464844 79.546875 L 390.679688 79.546875 L 393.0625 83.734375 L 395.449219 79.546875 L 396.660156 79.546875 L 393.582031 84.894531 L 393.582031 88.921875 L 392.546875 88.921875 L 392.546875 84.894531 Z M 389.464844 79.546875 "/>
<path style=" stroke:none;fill-rule:nonzero;fill:rgb(0%,0%,0%);fill-opacity:1;" d="M 400.660156 79.003906 L 404.054688 86.917969 L 407.445313 79.003906 L 409.347656 88.921875 L 408.269531 88.921875 L 407.0625 82.578125 L 404.039063 89.363281 L 401.039063 82.578125 L 399.824219 88.921875 L 398.753906 88.921875 Z M 400.660156 79.003906 "/>
<path style=" stroke:none;fill-rule:nonzero;fill:rgb(0%,0%,0%);fill-opacity:1;" d="M 414.351563 88.921875 L 413.316406 88.921875 L 413.316406 79.546875 L 414.851563 79.546875 C 415.660156 79.472656 416.472656 79.648438 417.179688 80.046875 C 417.855469 80.546875 418.25 81.34375 418.234375 82.183594 C 418.246094 82.949219 417.914063 83.6875 417.339844 84.195313 C 416.683594 84.664063 415.882813 84.890625 415.078125 84.816406 L 414.324219 84.816406 Z M 414.351563 83.84375 L 415.050781 83.84375 C 416.183594 83.84375 417.191406 83.492188 417.191406 82.148438 C 417.191406 80.625 415.960938 80.507813 414.742188 80.507813 L 414.351563 80.507813 Z M 414.351563 83.84375 "/>
<path style=" stroke:none;fill-rule:nonzero;fill:rgb(0%,0%,0%);fill-opacity:1;" d="M 422.066406 88.921875 L 423.105469 88.921875 L 423.105469 79.546875 L 422.066406 79.546875 Z M 422.066406 88.921875 "/>
<path style=" stroke:none;fill-rule:nonzero;fill:rgb(0%,0%,0%);fill-opacity:1;" d="M 428.421875 86.265625 L 427.289063 88.921875 L 426.160156 88.921875 L 430.488281 79.09375 L 434.703125 88.921875 L 433.574219 88.921875 L 432.445313 86.265625 Z M 430.445313 81.535156 L 428.839844 85.292969 L 432.011719 85.292969 Z M 430.445313 81.535156 "/>
<path style=" stroke:none;fill-rule:nonzero;fill:rgb(0%,0%,0%);fill-opacity:1;" d="M 437.972656 79.546875 L 439.738281 79.546875 C 441.058594 79.441406 442.367188 79.839844 443.390625 80.679688 C 445.445313 82.585938 445.445313 85.839844 443.390625 87.746094 C 442.355469 88.609375 441.015625 89.015625 439.679688 88.875 L 437.972656 88.875 Z M 439.78125 87.960938 C 440.867188 88.054688 441.933594 87.710938 442.742188 86.992188 C 444.339844 85.476563 444.339844 82.9375 442.742188 81.425781 C 441.929688 80.753906 440.886719 80.429688 439.839844 80.519531 L 439.082031 80.519531 L 439.082031 87.960938 Z M 439.78125 87.960938 "/>
</g>
</svg>
